# xmcd CD database file generated by Grip 2.92
# 
# Track frame offsets:
#       150
#       18978
#       45035
#       64536
#       101532
#       121812
#       134569
#       165498
#       186628
#       202647
#       239516
#       254428
# 
# Disc length: 3611 seconds
# 
# Revision: 3
# Processed by: cddbd v1.4b41PL1 Copyright (c) Steve Scherf et al.
# Submitted via: Grip 2.92
# 
DISCID=990e190c
DTITLE=Jim Diamond - Somewhere Somehow
DYEAR=1900
DGENRE=
TTITLE0=Sirfin' the Blues
TTITLE1=Down So LOng
TTITLE2=Somewhere Somehow
TTITLE3=How Blue Can You Get
TTITLE4=Don't Be Sad
TTITLE5=Can't Say Nothin'
TTITLE6=Chitlins Con Carne
TTITLE7=Special Kinda Love
TTITLE8=The Sun's Gonna Shine
TTITLE9=Desperate Man
TTITLE10=Tempest
TTITLE11=Highway 401
EXTD=
EXTT0=
EXTT1=
EXTT2=
EXTT3=
EXTT4=
EXTT5=
EXTT6=
EXTT7=
EXTT8=
EXTT9=
EXTT10=
EXTT11=
PLAYORDER=
